<svg id="visual" viewBox="0 0 960 540" width="960" height="540" xmlns="http://www.w3.org/2000/svg" xmlns:xlink="http://www.w3.org/1999/xlink" version="1.1"><path d="M0 33L14.5 42C29 51 58 69 87.2 73.5C116.3 78 145.7 69 174.8 63.7C204 58.3 233 56.7 262 53.2C291 49.7 320 44.3 349 47C378 49.7 407 60.3 436.2 65.7C465.3 71 494.7 71 523.8 66.5C553 62 582 53 611 46.7C640 40.3 669 36.7 698 34.8C727 33 756 33 785.2 35.8C814.3 38.7 843.7 44.3 872.8 48C902 51.7 931 53.3 945.5 54.2L960 55L960 0L945.5 0C931 0 902 0 872.8 0C843.7 0 814.3 0 785.2 0C756 0 727 0 698 0C669 0 640 0 611 0C582 0 553 0 523.8 0C494.7 0 465.3 0 436.2 0C407 0 378 0 349 0C320 0 291 0 262 0C233 0 204 0 174.8 0C145.7 0 116.3 0 87.2 0C58 0 29 0 14.5 0L0 0Z" fill="#b0724d"></path><path d="M0 125L14.5 126C29 127 58 129 87.2 133.5C116.3 138 145.7 145 174.8 143.2C204 141.3 233 130.7 262 119C291 107.3 320 94.7 349 92.8C378 91 407 100 436.2 109C465.3 118 494.7 127 523.8 127C553 127 582 118 611 113.5C640 109 669 109 698 106.3C727 103.7 756 98.3 785.2 100.2C814.3 102 843.7 111 872.8 111C902 111 931 102 945.5 97.5L960 93L960 53L945.5 52.2C931 51.3 902 49.7 872.8 46C843.7 42.3 814.3 36.7 785.2 33.8C756 31 727 31 698 32.8C669 34.7 640 38.3 611 44.7C582 51 553 60 523.8 64.5C494.7 69 465.3 69 436.2 63.7C407 58.3 378 47.7 349 45C320 42.3 291 47.7 262 51.2C233 54.7 204 56.3 174.8 61.7C145.7 67 116.3 76 87.2 71.5C58 67 29 49 14.5 40L0 31Z" fill="#cb885f"></path><path d="M0 325L14.5 323.2C29 321.3 58 317.7 87.2 324.8C116.3 332 145.7 350 174.8 357.2C204 364.3 233 360.7 262 352.7C291 344.7 320 332.3 349 309C378 285.7 407 251.3 436.2 244C465.3 236.7 494.7 256.3 523.8 259C553 261.7 582 247.3 611 241.2C640 235 669 237 698 249.7C727 262.3 756 285.7 785.2 288.3C814.3 291 843.7 273 872.8 261.3C902 249.7 931 244.3 945.5 241.7L960 239L960 91L945.5 95.5C931 100 902 109 872.8 109C843.7 109 814.3 100 785.2 98.2C756 96.3 727 101.7 698 104.3C669 107 640 107 611 111.5C582 116 553 125 523.8 125C494.7 125 465.3 116 436.2 107C407 98 378 89 349 90.8C320 92.7 291 105.3 262 117C233 128.7 204 139.3 174.8 141.2C145.7 143 116.3 136 87.2 131.5C58 127 29 125 14.5 124L0 123Z" fill="#e79e71"></path><path d="M0 444L14.5 444.8C29 445.7 58 447.3 87.2 445.5C116.3 443.7 145.7 438.3 174.8 439.3C204 440.3 233 447.7 262 446.8C291 446 320 437 349 408.2C378 379.3 407 330.7 436.2 318C465.3 305.3 494.7 328.7 523.8 336.7C553 344.7 582 337.3 611 339.2C640 341 669 352 698 374.5C727 397 756 431 785.2 425.5C814.3 420 843.7 375 872.8 356.2C902 337.3 931 344.7 945.5 348.3L960 352L960 237L945.5 239.7C931 242.3 902 247.7 872.8 259.3C843.7 271 814.3 289 785.2 286.3C756 283.7 727 260.3 698 247.7C669 235 640 233 611 239.2C582 245.3 553 259.7 523.8 257C494.7 254.3 465.3 234.7 436.2 242C407 249.3 378 283.7 349 307C320 330.3 291 342.7 262 350.7C233 358.7 204 362.3 174.8 355.2C145.7 348 116.3 330 87.2 322.8C58 315.7 29 319.3 14.5 321.2L0 323Z" fill="#ecad86"></path><path d="M0 541L14.5 541C29 541 58 541 87.2 541C116.3 541 145.7 541 174.8 541C204 541 233 541 262 541C291 541 320 541 349 541C378 541 407 541 436.2 541C465.3 541 494.7 541 523.8 541C553 541 582 541 611 541C640 541 669 541 698 541C727 541 756 541 785.2 541C814.3 541 843.7 541 872.8 541C902 541 931 541 945.5 541L960 541L960 350L945.5 346.3C931 342.7 902 335.3 872.8 354.2C843.7 373 814.3 418 785.2 423.5C756 429 727 395 698 372.5C669 350 640 339 611 337.2C582 335.3 553 342.7 523.8 334.7C494.7 326.7 465.3 303.3 436.2 316C407 328.7 378 377.3 349 406.2C320 435 291 444 262 444.8C233 445.7 204 438.3 174.8 437.3C145.7 436.3 116.3 441.7 87.2 443.5C58 445.3 29 443.7 14.5 442.8L0 442Z" fill="#f1bc9b"></path></svg>