<svg id="visual" viewBox="0 0 900 300" width="900" height="300" xmlns="http://www.w3.org/2000/svg" xmlns:xlink="http://www.w3.org/1999/xlink" version="1.1"><path d="M0 206L21.5 201.5C43 197 86 188 128.8 190.3C171.7 192.7 214.3 206.3 257.2 208C300 209.7 343 199.3 385.8 194.5C428.7 189.7 471.3 190.3 514.2 194.3C557 198.3 600 205.7 642.8 204.2C685.7 202.7 728.3 192.3 771.2 187.7C814 183 857 184 878.5 184.5L900 185L900 301L878.5 301C857 301 814 301 771.2 301C728.3 301 685.7 301 642.8 301C600 301 557 301 514.2 301C471.3 301 428.7 301 385.8 301C343 301 300 301 257.2 301C214.3 301 171.7 301 128.8 301C86 301 43 301 21.5 301L0 301Z" fill="#ee7c34"></path><path d="M0 223L21.5 222C43 221 86 219 128.8 214.5C171.7 210 214.3 203 257.2 203C300 203 343 210 385.8 215C428.7 220 471.3 223 514.2 226.7C557 230.3 600 234.7 642.8 235C685.7 235.3 728.3 231.7 771.2 227.2C814 222.7 857 217.3 878.5 214.7L900 212L900 301L878.5 301C857 301 814 301 771.2 301C728.3 301 685.7 301 642.8 301C600 301 557 301 514.2 301C471.3 301 428.7 301 385.8 301C343 301 300 301 257.2 301C214.3 301 171.7 301 128.8 301C86 301 43 301 21.5 301L0 301Z" fill="#bc6835"></path><path d="M0 229L21.5 231.5C43 234 86 239 128.8 242.5C171.7 246 214.3 248 257.2 244.8C300 241.7 343 233.3 385.8 229C428.7 224.7 471.3 224.3 514.2 227C557 229.7 600 235.3 642.8 235.3C685.7 235.3 728.3 229.7 771.2 227.7C814 225.7 857 227.3 878.5 228.2L900 229L900 301L878.5 301C857 301 814 301 771.2 301C728.3 301 685.7 301 642.8 301C600 301 557 301 514.2 301C471.3 301 428.7 301 385.8 301C343 301 300 301 257.2 301C214.3 301 171.7 301 128.8 301C86 301 43 301 21.5 301L0 301Z" fill="#8c5534"></path><path d="M0 265L21.5 265C43 265 86 265 128.8 264.2C171.7 263.3 214.3 261.7 257.2 261.8C300 262 343 264 385.8 260.8C428.7 257.7 471.3 249.3 514.2 249.7C557 250 600 259 642.8 263C685.7 267 728.3 266 771.2 266.2C814 266.3 857 267.7 878.5 268.3L900 269L900 301L878.5 301C857 301 814 301 771.2 301C728.3 301 685.7 301 642.8 301C600 301 557 301 514.2 301C471.3 301 428.7 301 385.8 301C343 301 300 301 257.2 301C214.3 301 171.7 301 128.8 301C86 301 43 301 21.5 301L0 301Z" fill="#5e4232"></path><path d="M0 280L21.5 277.3C43 274.7 86 269.3 128.8 267.8C171.7 266.3 214.3 268.7 257.2 270.2C300 271.7 343 272.3 385.8 273.5C428.7 274.7 471.3 276.3 514.2 277.5C557 278.7 600 279.3 642.8 277C685.7 274.7 728.3 269.3 771.2 266.7C814 264 857 264 878.5 264L900 264L900 301L878.5 301C857 301 814 301 771.2 301C728.3 301 685.7 301 642.8 301C600 301 557 301 514.2 301C471.3 301 428.7 301 385.8 301C343 301 300 301 257.2 301C214.3 301 171.7 301 128.8 301C86 301 43 301 21.5 301L0 301Z" fill="#2f2f2f"></path></svg>