<svg id="visual" viewBox="0 0 960 200" width="960" height="200" xmlns="http://www.w3.org/2000/svg" xmlns:xlink="http://www.w3.org/1999/xlink" version="1.1"><path d="M0 77L22.8 73.8C45.7 70.7 91.3 64.3 137 60.2C182.7 56 228.3 54 274 55.8C319.7 57.7 365.3 63.3 411.2 64.3C457 65.3 503 61.7 548.8 61.5C594.7 61.3 640.3 64.7 686 64.8C731.7 65 777.3 62 823 62.7C868.7 63.3 914.3 67.7 937.2 69.8L960 72L960 0L937.2 0C914.3 0 868.7 0 823 0C777.3 0 731.7 0 686 0C640.3 0 594.7 0 548.8 0C503 0 457 0 411.2 0C365.3 0 319.7 0 274 0C228.3 0 182.7 0 137 0C91.3 0 45.7 0 22.8 0L0 0Z" fill="#ee7c34"></path><path d="M0 59L22.8 60.5C45.7 62 91.3 65 137 65.2C182.7 65.3 228.3 62.7 274 60.3C319.7 58 365.3 56 411.2 53.2C457 50.3 503 46.7 548.8 44.2C594.7 41.7 640.3 40.3 686 41.5C731.7 42.7 777.3 46.3 823 48.2C868.7 50 914.3 50 937.2 50L960 50L960 0L937.2 0C914.3 0 868.7 0 823 0C777.3 0 731.7 0 686 0C640.3 0 594.7 0 548.8 0C503 0 457 0 411.2 0C365.3 0 319.7 0 274 0C228.3 0 182.7 0 137 0C91.3 0 45.7 0 22.8 0L0 0Z" fill="#be6937"></path><path d="M0 46L22.8 46.8C45.7 47.7 91.3 49.3 137 48.5C182.7 47.7 228.3 44.3 274 42.8C319.7 41.3 365.3 41.7 411.2 40.2C457 38.7 503 35.3 548.8 33.3C594.7 31.3 640.3 30.7 686 30.2C731.7 29.7 777.3 29.3 823 31.5C868.7 33.7 914.3 38.3 937.2 40.7L960 43L960 0L937.2 0C914.3 0 868.7 0 823 0C777.3 0 731.7 0 686 0C640.3 0 594.7 0 548.8 0C503 0 457 0 411.2 0C365.3 0 319.7 0 274 0C228.3 0 182.7 0 137 0C91.3 0 45.7 0 22.8 0L0 0Z" fill="#8f5737"></path><path d="M0 27L22.8 27.8C45.7 28.7 91.3 30.3 137 31.5C182.7 32.7 228.3 33.3 274 31.2C319.7 29 365.3 24 411.2 21.7C457 19.3 503 19.7 548.8 21C594.7 22.3 640.3 24.7 686 27.3C731.7 30 777.3 33 823 32.2C868.7 31.3 914.3 26.7 937.2 24.3L960 22L960 0L937.2 0C914.3 0 868.7 0 823 0C777.3 0 731.7 0 686 0C640.3 0 594.7 0 548.8 0C503 0 457 0 411.2 0C365.3 0 319.7 0 274 0C228.3 0 182.7 0 137 0C91.3 0 45.7 0 22.8 0L0 0Z" fill="#614536"></path><path d="M0 13L22.8 13C45.7 13 91.3 13 137 14.2C182.7 15.3 228.3 17.7 274 17.2C319.7 16.7 365.3 13.3 411.2 11.5C457 9.7 503 9.3 548.8 9C594.7 8.7 640.3 8.3 686 10.8C731.7 13.3 777.3 18.7 823 19.7C868.7 20.7 914.3 17.3 937.2 15.7L960 14L960 0L937.2 0C914.3 0 868.7 0 823 0C777.3 0 731.7 0 686 0C640.3 0 594.7 0 548.8 0C503 0 457 0 411.2 0C365.3 0 319.7 0 274 0C228.3 0 182.7 0 137 0C91.3 0 45.7 0 22.8 0L0 0Z" fill="#333333"></path></svg>